P2
# 8-bit pgm gray
33 33
255
205 205 205 205 205 205 205 205 205 205 205 205 205 205 205 205   0   0   0   0   0   0   0   0
  0   0   0   0   0   0   0   0   0
205 205 205 205 205 205 205 205 205 205 205 205 205 205 205 205   0 255 255 255 255 255 255 255
255 255 255 255 255 255 255 255 255
205 205 205 205 205 205 205 205 205 205 205 205 205 205 205 205   0 255 255 255 255 255 255 255
255 255 255 255 255 255 255 255 255
205 205 205 205 205 205 205 205 205 205 205 205 205 205 205 205   0 255 255 255 255 255 255 255
255 255 255 255 255 255 255 255 255
205 205 205 205 205 205 205 205 205 205 205 205 205 205 205 205   0 255 255 255 255 255 255 255
255 255 255 255 255 255 255 255 255
205 205 205 205 205 205 205 205 205 205 205 205 205 205 205 205   0 255 255 255 255 255 255 255
255 255 255 255 255 255 255 255 255
205 205 205 205 205 205 205 205 205 205 205 205 205 205 205 205   0 255 255 255 255 255 255 255
255 255 255 255 255 255 255 255 255
205 205 205 205 205 205 205 205 205 205 205 205 205 205 205 205   0 255 255 255 255 255 255 255
255 255 255 255 255 255 255 255 255
  0   0   0   0   0   0   0   0   0   0   0   0   0   0   0   0   0   0   0   0   0   0   0   0
  0 255 255 255 255 255 255 255   0
  0 255 255 255 255 255 255 255 255 255 255 255 255 255 255 255 255 255 255 255 255 255 255 255
  0 255 255 255 255 255 255 255   0
  0 255 255 255 255 255 255 255 255 255 255 255 255 255 255 255 255 255 255 255 255 255 255 255
  0 255 255 255 255 255 255 255   0
  0 255 255 255 255 255 255 255 255 255 255 255 255 255 255 255 255 255 255 255 255 255 255 255
  0 255 255 255 255 255 255 255   0
  0 255 255 255 255 255 255 255 255 255 255 255 255 255 255 255 255 255 255 255 255 255 255 255
  0 255 255 255 255 255 255 255   0
  0 255 255 255 255 255 255 255 255 255 255 255 255 255 255 255 255 255 255 255 255 255 255 255
  0 255 255 255 255 255 255 255   0
  0 255 255 255 255 255 255 255 255 255 255 255 255 255 255 255 255 255 255 255 255 255 255 255
  0 255 255 255 255 255 255 255   0
  0 255 255 255 255 255 255 255 255 255 255 255 255 255 255 255 255 255 255 255 255 255 255 255
  0 255 255 255 255 255 255 255   0
  0 255 255 255 255 255 255 255 255 255 255 255 255 255 255 255   0 255 255 255 255 255 255 255
  0 255 255 255 255 255 255 255   0
  0 255 255 255 255 255 255 255 255 255 255 255 255 255 255 255   0 255 255 255 255 255 255 255
  0 255 255 255 255 255 255 255   0
  0 255 255 255 255 255 255 255 255 255 255 255 255 255 255 255   0 255 255 255 255 255 255 255
  0 255 255 255 255 255 255 255   0
  0 255 255 255 255 255 255 255 255 255 255 255 255 255 255 255   0 255 255 255 255 255 255 255
  0 255 255 255 255 255 255 255   0
  0 255 255 255 255 255 255 255 255 255 255 255 255 255 255 255   0 255 255 255 255 255 255 255
  0 255 255 255 255 255 255 255   0
  0 255 255 255 255 255 255 255 255 255 255 255 255 255 255 255   0 255 255 255 255 255 255 255
  0 255 255 255 255 255 255 255   0
  0 255 255 255 255 255 255 255 255 255 255 255 255 255 255 255   0 255 255 255 255 255 255 255
  0 255 255 255 255 255 255 255   0
  0 255 255 255 255 255 255 255 255 255 255 255 255 255 255 255   0 255 255 255 255 255 255 255
  0 255 255 255 255 255 255 255   0
  0   0   0   0   0   0   0   0   0 255 255 255 255 255 255 255   0 255 255 255 255 255 255 255
  0 255 255 255 255 255 255 255   0
205 205 205 205 205 205 205 205   0 255 255 255 255 255 255 255   0 255 255 255 255 255 255 255
255 255 255 255 255 255 255 255   0
205 205 205 205 205 205 205 205   0 255 255 255 255 255 255 255   0 255 255 255 255 255 255 255
255 255 255 255 255 255 255 255   0
205 205 205 205 205 205 205 205   0 255 255 255 255 255 255 255   0 255 255 255 255 255 255 255
255 255 255 255 255 255 255 255   0
205 205 205 205 205 205 205 205   0 255 255 255 255 255 255 255   0 255 255 255 255 255 255 255
255 255 255 255 255 255 255 255   0
205 205 205 205 205 205 205 205   0 255 255 255 255 255 255 255   0 255 255 255 255 255 255 255
255 255 255 255 255 255 255 255   0
205 205 205 205 205 205 205 205   0 255 255 255 255 255 255 255   0 255 255 255 255 255 255 255
255 255 255 255 255 255 255 255   0
205 205 205 205 205 205 205 205   0 255 255 255 255 255 255 255   0 255 255 255 255 255 255 255
255 255 255 255 255 255 255 255   0
205 205 205 205 205 205 205 205   0   0   0   0   0   0   0   0   0   0   0   0   0   0   0   0
  0   0   0   0   0   0   0   0   0
